<!DOCTYPE svg>

<svg version="1.1" class="header-svg" width="1020" height="437" viewBox="0 0 1020 437" fill="none" xmlns="http://www.w3.org/2000/svg">



<g clip-path="url(#clip0)">
<path d="M223.77 243.614C223.779 242.274 223.512 240.946 222.986 239.714C222.459 238.481 221.683 237.371 220.708 236.451C219.733 235.532 218.578 234.823 217.317 234.37C216.056 233.917 214.714 233.729 213.377 233.817C212.04 233.905 210.735 234.268 209.544 234.884C208.353 235.499 207.302 236.353 206.456 237.393C205.61 238.432 204.988 239.635 204.628 240.926C204.267 242.217 204.177 243.569 204.363 244.896L176.348 281.582C175.153 283.973 174.689 286.663 175.016 289.316C175.343 291.969 176.445 294.467 178.184 296.496L180.382 299.06L190.465 297.043L201.893 286.96L200.548 275.532L214.665 253.349L214.647 253.333C217.118 253.176 219.436 252.083 221.131 250.278C222.825 248.473 223.769 246.09 223.77 243.614V243.614Z" fill="#FFB9B9"/>
<path d="M30.041 422.968L25.468 405.984L88.8 380.265L95.549 405.331L30.041 422.968Z" fill="#FFB8B8"/>
<path d="M14.7441 431.732L0 376.97L0.692642 376.783C6.34562 375.261 12.3716 376.047 17.4451 378.968C22.5186 381.889 26.2241 386.706 27.7466 392.358L27.747 392.36L36.7521 425.807L14.7441 431.732Z" fill="#00233D"/>
<path d="M117.278 420.254L103.054 409.91L136.185 350.121L157.179 365.388L117.278 420.254Z" fill="#FFB8B8"/>
<path d="M110.879 436.681L65.0128 403.326L65.4347 402.746C68.878 398.011 74.0609 394.838 79.8435 393.925C85.626 393.012 91.5345 394.433 96.2695 397.875L96.2706 397.876L124.284 418.249L110.879 436.681Z" fill="#00233D"/>
<path d="M238.192 336.704L202.397 301.932C199.273 298.897 195.159 297.092 190.81 296.849C186.462 296.606 182.172 297.942 178.729 300.609L111.143 375.693L117.193 385.104L181.726 341.41L225.42 398.548L267.098 377.71L238.192 336.704Z" fill="#00233D"/>
<path d="M222.731 344.099L196.515 342.082L177.529 337.479C176.456 335.806 174.898 334.501 173.064 333.737C171.229 332.974 169.205 332.79 167.262 333.209C165.319 333.628 163.551 334.63 162.194 336.082C160.837 337.534 159.956 339.365 159.668 341.331C159.381 343.298 159.701 345.305 160.586 347.084C161.47 348.864 162.878 350.33 164.619 351.288C166.361 352.245 168.353 352.648 170.329 352.442C172.306 352.236 174.172 351.431 175.679 350.135L175.676 350.149L187.104 354.854L236.176 371.66L242.226 366.954L222.731 344.099Z" fill="#FFB9B9"/>
<path d="M285.92 416.699L271.131 426.11H253.653L172.315 395.86L53.332 417.371L49.971 391.826L158.871 344.099L254.326 375.693L285.92 416.699Z" fill="#00233D"/>
<path d="M254.326 253.349C268.805 253.349 280.542 241.611 280.542 227.132C280.542 212.653 268.805 200.916 254.326 200.916C239.847 200.916 228.109 212.653 228.109 227.132C228.109 241.611 239.847 253.349 254.326 253.349Z" fill="#FFB9B9"/>
<path d="M322.159 331.804C322.159 347.626 319.666 363.349 314.772 378.395L312.809 384.432L303.398 427.454L293.315 430.143L285.92 420.732L271.131 409.976L260.376 392.499L251.153 377.132L248.276 372.332L238.192 321.915L199.876 300.404L187.104 298.388L189.793 290.993L201.22 275.532L212.648 274.188L216.009 271.499L218.698 272.843L233.521 278.553L281.578 258.249L288.609 259.399L312.809 279.566C318.995 296.287 322.161 313.975 322.159 331.804V331.804Z" fill="#1799DD"/>
<path opacity="0.1" d="M314.825 325.949L289.281 342.754L251.153 377.131L248.276 372.332L240.209 331.999H242.226L263.065 293.683L314.825 325.949Z" fill="black"/>
<path d="M263.065 289.649L242.226 327.965L230.126 341.41L219.371 344.099L248.276 375.693L289.281 338.721L314.825 321.915L263.065 289.649Z" fill="#1799DD"/>
<path d="M233.935 207.639L231.094 208.732C230.663 208.44 230.293 208.066 230.007 207.631C229.72 207.197 229.522 206.71 229.423 206.198C229.325 205.687 229.328 205.161 229.433 204.651C229.538 204.141 229.742 203.657 230.034 203.225C230.049 203.203 230.065 203.18 230.08 203.158L224.831 202.912C228.201 198.425 232.485 194.704 237.4 191.995C242.316 189.287 247.75 187.653 253.344 187.203C258.938 186.752 264.564 187.494 269.849 189.38C275.135 191.266 279.96 194.253 284.005 198.143C284.244 197.32 286.849 198.921 287.912 200.545C288.27 199.206 290.713 205.68 291.577 210.257C291.977 208.733 293.514 211.193 292.167 213.554C293.021 213.429 293.406 215.613 292.746 216.83C293.68 216.391 293.522 218.999 292.509 220.741C293.842 220.623 292.396 248.072 272.396 246.072C271.003 239.675 271.396 240.072 269.756 231.846C268.993 231.036 268.157 230.298 267.323 229.562L262.81 225.578C257.563 220.946 252.79 215.23 245.799 213.499C240.996 212.309 237.958 212.04 240.576 206.627C238.211 207.614 236.002 209.082 233.615 209.999C233.647 209.242 233.981 208.396 233.935 207.639Z" fill="#F3D94C"/>
<path d="M267.434 234.863C270.033 234.863 272.14 232.756 272.14 230.157C272.14 227.559 270.033 225.452 267.434 225.452C264.835 225.452 262.729 227.559 262.729 230.157C262.729 232.756 264.835 234.863 267.434 234.863Z" fill="#FFB9B9"/>
<path class="header-svg__square" d="M34.0856 130.472L60.2685 132.216L58.5248 158.398L32.3419 156.655L34.0856 130.472ZM59.0543 133.278L35.1482 131.686L33.5561 155.592L57.4622 157.184L59.0543 133.278Z" fill="#1799DD"/>
<path class="header-svg__square" d="M155.021 44.8502L160.533 70.5054L134.878 76.018L129.365 50.3627L155.021 44.8502ZM159.178 69.6297L154.145 46.2053L130.72 51.2385L135.754 74.6629L159.178 69.6297Z" fill="#1799DD"/>
<path class="header-svg__square" d="M163.557 154.337L144.405 172.276L126.466 153.124L145.618 135.186L163.557 154.337ZM144.458 170.663L161.944 154.285L145.565 136.798L128.079 153.177L144.458 170.663Z" fill="#1799DD"/>
<path d="M963.277 0H323.894C321.583 -2.62643e-06 319.295 0.455194 317.16 1.3396C315.025 2.22401 313.084 3.52029 311.45 5.15446C309.816 6.78864 308.52 8.72868 307.635 10.8638C306.751 12.999 306.296 15.2874 306.296 17.5985V373.851C306.296 376.162 306.751 378.45 307.635 380.585C308.52 382.721 309.816 384.661 311.45 386.295C313.084 387.929 315.025 389.225 317.16 390.11C319.295 390.994 321.583 391.449 323.894 391.449H963.277C967.945 391.449 972.421 389.595 975.721 386.295C979.021 382.994 980.876 378.518 980.876 373.851V17.5985C980.876 12.9311 979.021 8.45484 975.721 5.15448C972.421 1.85412 967.945 2.65217e-06 963.277 0V0Z" fill="#005A87"/>
<path d="M643.049 21.4493C646.603 21.4493 649.484 18.5683 649.484 15.0145C649.484 11.4607 646.603 8.57971 643.049 8.57971C639.496 8.57971 636.615 11.4607 636.615 15.0145C636.615 18.5683 639.496 21.4493 643.049 21.4493Z" fill="white"/>
<path d="M958 385H330V31H958V385Z" fill="#E6F6FF"/>
<path d="M998.491 378.58H937.262V374.168C937.262 374.053 937.239 373.94 937.195 373.833C937.151 373.727 937.087 373.631 937.006 373.55C936.925 373.468 936.828 373.404 936.722 373.36C936.616 373.316 936.502 373.293 936.387 373.293H915.394C915.279 373.293 915.166 373.316 915.06 373.36C914.953 373.404 914.857 373.468 914.776 373.55C914.694 373.631 914.63 373.727 914.586 373.833C914.542 373.939 914.52 374.053 914.52 374.168V378.58H901.399V374.168C901.399 374.053 901.376 373.94 901.332 373.833C901.289 373.727 901.224 373.631 901.143 373.55C901.062 373.468 900.965 373.404 900.859 373.36C900.753 373.316 900.639 373.293 900.524 373.293H879.532C879.417 373.293 879.303 373.316 879.197 373.36C879.091 373.404 878.994 373.468 878.913 373.55C878.832 373.631 878.767 373.727 878.723 373.833C878.679 373.94 878.657 374.053 878.657 374.168V374.168V378.58H865.536V374.168C865.536 374.053 865.514 373.94 865.47 373.833C865.426 373.727 865.361 373.631 865.28 373.55C865.199 373.468 865.102 373.404 864.996 373.36C864.89 373.316 864.776 373.293 864.662 373.293H843.669C843.554 373.293 843.44 373.316 843.334 373.36C843.228 373.404 843.131 373.468 843.05 373.55C842.969 373.631 842.904 373.727 842.86 373.833C842.816 373.94 842.794 374.053 842.794 374.168V374.168V378.58H829.673V374.168C829.673 374.053 829.651 373.94 829.607 373.833C829.563 373.727 829.498 373.631 829.417 373.55C829.336 373.468 829.24 373.404 829.133 373.36C829.027 373.316 828.914 373.293 828.799 373.293H807.806C807.691 373.293 807.577 373.316 807.471 373.36C807.365 373.404 807.268 373.468 807.187 373.55C807.106 373.631 807.042 373.727 806.998 373.833C806.954 373.939 806.931 374.053 806.931 374.168V378.58H793.811V374.168C793.811 374.053 793.788 373.94 793.744 373.833C793.7 373.727 793.636 373.631 793.554 373.55C793.473 373.468 793.377 373.404 793.271 373.36C793.164 373.316 793.051 373.293 792.936 373.293H771.943C771.828 373.293 771.714 373.316 771.608 373.36C771.502 373.404 771.406 373.468 771.324 373.55C771.243 373.631 771.179 373.727 771.135 373.833C771.091 373.94 771.068 374.053 771.068 374.168V374.168V378.58H757.948V374.168C757.948 374.053 757.925 373.94 757.881 373.833C757.837 373.727 757.773 373.631 757.691 373.55C757.61 373.468 757.514 373.404 757.408 373.36C757.301 373.316 757.188 373.293 757.073 373.293H736.08C735.965 373.293 735.851 373.316 735.745 373.36C735.639 373.404 735.543 373.468 735.461 373.55C735.38 373.631 735.316 373.727 735.272 373.833C735.228 373.94 735.205 374.053 735.205 374.168V374.168V378.58H722.085V374.168C722.085 374.053 722.062 373.94 722.018 373.833C721.974 373.727 721.91 373.631 721.829 373.55C721.747 373.468 721.651 373.404 721.545 373.36C721.439 373.316 721.325 373.293 721.21 373.293H556.766C556.651 373.293 556.537 373.316 556.431 373.36C556.325 373.404 556.228 373.468 556.147 373.55C556.066 373.631 556.001 373.727 555.957 373.833C555.913 373.94 555.891 374.053 555.891 374.168V374.168V378.58H542.77V374.168C542.77 374.053 542.748 373.94 542.704 373.833C542.66 373.727 542.595 373.631 542.514 373.55C542.433 373.468 542.336 373.404 542.23 373.36C542.124 373.316 542.01 373.293 541.896 373.293H520.903C520.788 373.293 520.674 373.316 520.568 373.36C520.462 373.404 520.365 373.468 520.284 373.55C520.203 373.631 520.139 373.727 520.095 373.833C520.051 373.94 520.028 374.053 520.028 374.168V374.168V378.58H506.907V374.168C506.907 374.053 506.885 373.94 506.841 373.833C506.797 373.727 506.732 373.631 506.651 373.55C506.57 373.468 506.474 373.404 506.368 373.36C506.261 373.316 506.148 373.293 506.033 373.293H485.04C484.925 373.293 484.811 373.316 484.705 373.36C484.599 373.404 484.503 373.468 484.421 373.55C484.34 373.631 484.276 373.727 484.232 373.833C484.188 373.94 484.165 374.053 484.165 374.168V374.168V378.58H471.045V374.168C471.045 374.053 471.022 373.94 470.978 373.833C470.934 373.727 470.87 373.631 470.788 373.55C470.707 373.468 470.611 373.404 470.505 373.36C470.398 373.316 470.285 373.293 470.17 373.293H449.177C449.062 373.293 448.948 373.316 448.842 373.36C448.736 373.404 448.64 373.468 448.558 373.55C448.477 373.631 448.413 373.727 448.369 373.833C448.325 373.94 448.302 374.053 448.302 374.168V374.168V378.58H435.182V374.168C435.182 374.053 435.159 373.94 435.115 373.833C435.071 373.727 435.007 373.631 434.925 373.55C434.844 373.468 434.748 373.404 434.642 373.36C434.536 373.316 434.422 373.293 434.307 373.293H413.314C413.199 373.293 413.085 373.316 412.979 373.36C412.873 373.404 412.777 373.468 412.696 373.55C412.614 373.631 412.55 373.727 412.506 373.833C412.462 373.94 412.439 374.053 412.439 374.168V374.168V378.58H399.319V374.168C399.319 374.053 399.296 373.94 399.252 373.833C399.208 373.727 399.144 373.631 399.063 373.55C398.981 373.468 398.885 373.404 398.779 373.36C398.673 373.316 398.559 373.293 398.444 373.293H377.451C377.219 373.293 376.997 373.386 376.833 373.55C376.669 373.714 376.576 373.936 376.576 374.168V378.58H363.456V374.168C363.456 374.053 363.433 373.94 363.389 373.833C363.345 373.727 363.281 373.631 363.2 373.55C363.118 373.468 363.022 373.404 362.916 373.36C362.81 373.316 362.696 373.293 362.581 373.293H341.588C341.356 373.293 341.134 373.386 340.97 373.55C340.806 373.714 340.714 373.936 340.714 374.168V378.58H300.477C294.909 378.58 289.57 380.791 285.633 384.728C281.696 388.665 279.484 394.005 279.484 399.573V409.065C279.484 414.633 281.696 419.972 285.633 423.909C289.57 427.846 294.909 430.058 300.477 430.058H998.491C1004.06 430.058 1009.4 427.846 1013.34 423.909C1017.27 419.972 1019.48 414.633 1019.48 409.065V399.573C1019.48 396.816 1018.94 394.086 1017.89 391.539C1016.83 388.992 1015.28 386.678 1013.34 384.728C1011.39 382.779 1009.07 381.233 1006.52 380.178C1003.98 379.123 1001.25 378.58 998.491 378.58V378.58Z" fill="#005A87"/>
<path d="M652.8 262C667.712 262 679.8 249.912 679.8 235C679.8 220.088 667.712 208 652.8 208C637.888 208 625.8 220.088 625.8 235C625.8 249.912 637.888 262 652.8 262Z" fill="#F3D94C"/>
<path d="M627.146 408.326L626.431 396.088L673.297 387.503L674.353 405.567L627.146 408.326Z" fill="#FFB8B8"/>
<path d="M629.416 387.141L630.796 410.745L615.935 411.613L613.686 373.148C615.638 373.034 617.593 373.306 619.44 373.947C621.286 374.589 622.989 375.587 624.449 376.887C625.91 378.186 627.1 379.76 627.953 381.52C628.805 383.279 629.302 385.189 629.416 387.141Z" fill="#2F2E41"/>
<path d="M647.53 408.214L639.745 417.685L599.509 392.166L610.998 378.188L647.53 408.214Z" fill="#FFB8B8"/>
<path d="M631.478 422.226L646.492 403.96L657.992 413.413L633.526 443.179C632.016 441.938 630.765 440.411 629.845 438.687C628.924 436.962 628.353 435.073 628.163 433.127C627.973 431.181 628.168 429.217 628.736 427.347C629.305 425.476 630.237 423.736 631.478 422.226V422.226Z" fill="#00233D"/>
<path d="M625.128 364.17L619.808 389.249C619.685 389.826 619.692 390.424 619.828 390.998C619.963 391.573 620.225 392.11 620.593 392.572C620.96 393.033 621.426 393.408 621.956 393.668C622.485 393.929 623.066 394.069 623.656 394.078L675.954 394.922C676.544 394.931 677.128 394.81 677.665 394.568C678.203 394.325 678.68 393.967 679.062 393.518C679.445 393.069 679.723 392.542 679.878 391.973C680.033 391.404 680.06 390.808 679.958 390.227L675.383 364.305C675.22 363.379 674.735 362.54 674.015 361.936C673.295 361.331 672.384 361 671.444 361H629.041C628.124 361 627.235 361.315 626.523 361.892C625.81 362.469 625.318 363.273 625.128 364.17V364.17Z" fill="#2F2E41"/>
<path d="M633.8 373C633.8 373 582.8 341 572.8 358C567.8 366.5 570.3 374.75 574.05 380.875C577.53 386.452 582.525 390.923 588.452 393.766L629.8 414L644.8 398L634.8 389L633.8 373Z" fill="#00233D"/>
<path d="M659.8 368C659.8 368 725.8 349 712.8 385C699.8 421 650.8 407 650.8 407L645.8 392L662.8 380L659.8 368Z" fill="#00233D"/>
<path d="M653.139 265.726C666.703 265.726 677.7 254.73 677.7 241.165C677.7 227.601 666.703 216.604 653.139 216.604C639.574 216.604 628.578 227.601 628.578 241.165C628.578 254.73 639.574 265.726 653.139 265.726Z" fill="#FFB8B8"/>
<path d="M654.425 371.969C644.22 371.814 634.066 370.477 624.168 367.982L623.876 367.902L610.17 304.857C608.937 299.317 609.776 293.518 612.527 288.554C615.278 283.59 619.752 279.805 625.103 277.914C641.633 271.983 659.649 271.623 676.403 276.89H676.403C682.025 278.701 686.756 282.566 689.654 287.712C692.552 292.858 693.404 298.908 692.038 304.654L676.73 367.85L676.514 367.952C670.152 370.966 662.197 371.969 654.425 371.969Z" fill="#1799DD"/>
<path d="M636.015 376.866C636.513 375.483 637.308 374.226 638.344 373.183C639.38 372.14 640.633 371.337 642.013 370.831C643.393 370.324 644.867 370.126 646.332 370.251C647.797 370.376 649.216 370.821 650.491 371.554L677.477 348.13L679.919 366.538L653.918 385.96C652.544 388.019 650.464 389.503 648.069 390.131C645.675 390.758 643.134 390.486 640.927 389.365C638.721 388.244 637.002 386.352 636.096 384.049C635.191 381.745 635.162 379.19 636.015 376.866V376.866Z" fill="#FFB8B8"/>
<path d="M665.08 388.914C664.614 388.936 664.147 388.891 663.695 388.78C662.96 388.605 662.279 388.258 661.707 387.768C661.135 387.278 660.69 386.658 660.408 385.962L656.48 376.395C656.112 375.511 656.024 374.537 656.226 373.602C656.427 372.666 656.91 371.814 657.609 371.157L695.479 345.976L676.788 278.517L677.174 278.405C677.331 278.358 692.91 274.027 700.197 290.83C705.301 302.599 723.296 327.852 722.972 345.524C722.919 349.058 721.67 352.472 719.426 355.215C717.183 357.958 714.075 359.869 710.606 360.64L667.921 387.787C667.125 388.465 666.126 388.861 665.08 388.914Z" fill="#1799DD"/>
<path d="M665.877 374.673C665.379 373.289 664.584 372.032 663.548 370.989C662.512 369.946 661.26 369.144 659.88 368.637C658.499 368.131 657.025 367.933 655.56 368.058C654.096 368.183 652.676 368.627 651.402 369.36L624.415 345.936L621.974 364.344L647.975 383.766C649.348 385.826 651.429 387.31 653.823 387.937C656.217 388.565 658.758 388.292 660.965 387.171C663.172 386.05 664.891 384.159 665.796 381.855C666.701 379.552 666.73 376.996 665.877 374.673V374.673Z" fill="#FFB8B8"/>
<path d="M642.847 381.976C641.861 381.974 640.903 381.645 640.123 381.041L595.735 359.328C592.437 358.759 589.427 357.094 587.191 354.603C584.955 352.112 583.624 348.941 583.413 345.601C582.3 328.901 601.07 302.189 605.332 290.824C611.417 274.597 626.267 277.976 626.417 278.014L626.786 278.103L609.292 344.764L649.061 364.838C649.749 365.427 650.242 366.211 650.474 367.087C650.707 367.962 650.668 368.887 650.363 369.74L647.106 378.969C646.873 379.641 646.482 380.247 645.967 380.737C645.451 381.227 644.826 381.586 644.143 381.785C643.723 381.911 643.286 381.975 642.847 381.976V381.976Z" fill="#1799DD"/>
<path d="M695.8 392H606.8C604.944 391.998 603.165 391.26 601.853 389.947C600.54 388.635 599.802 386.856 599.8 385V336C599.802 334.144 600.54 332.365 601.853 331.053C603.165 329.74 604.944 329.002 606.8 329H695.8C697.656 329.002 699.435 329.74 700.747 331.053C702.06 332.365 702.798 334.144 702.8 336V385C702.798 386.856 702.06 388.635 700.747 389.947C699.435 391.26 697.656 391.998 695.8 392V392Z" fill="#53C1DE"/>
<path d="M651.3 366.5C654.614 366.5 657.3 363.814 657.3 360.5C657.3 357.186 654.614 354.5 651.3 354.5C647.986 354.5 645.3 357.186 645.3 360.5C645.3 363.814 647.986 366.5 651.3 366.5Z" fill="white"/>
<path d="M628.332 240.166C626.876 236.473 629.264 232.073 632.807 230.285C636.35 228.496 640.626 228.836 644.415 230.015C647.6 231.006 650.585 232.541 653.692 233.754C656.756 235.111 660.102 235.707 663.445 235.49C666.76 235.116 670.058 233.258 671.414 230.21C672.82 227.052 671.864 223.197 669.699 220.502C667.396 217.896 664.415 215.98 661.087 214.967C653.78 212.392 645.339 212.317 638.555 216.059C631.771 219.802 627.161 227.77 628.563 235.389" fill="#F3D94C"/>
<path d="M906 88L899.531 159.987L870.455 168L841.46 159.987L835 88H906Z" fill="#E44D26"/>
<path d="M870 162L894.294 155.53L900 94H870V162Z" fill="#F16529"/>
<path d="M858.022 111.004H870.996V102H848L848.219 104.416L850.475 129.226H871V120.223H858.863L858.022 111.004ZM860.107 133.728H850.908L852.192 147.866L870.956 153H871V143.605H870.961L860.746 140.896L860.107 133.728Z" fill="#EBEBEB"/>
<path d="M842 68H846.522V72.2911H850.658V68H855.18V81H850.658V76.6476H846.522V81H842V68ZM861.126 72.3116H857.144V68H869.631V72.3116H865.649V81H861.131V72.3116H861.126ZM871.616 68H876.334L879.237 72.5688L882.136 68H886.854V81H882.348V74.5572L879.237 79.179H879.161L876.045 74.5572V81H871.616V68ZM889.102 68H893.625V76.7007H900V80.9959H889.115V68H889.102Z" fill="black"/>
<path d="M870 129.228H881.294L880.23 140.906L870 143.614V153L888.807 147.884L888.943 146.362L891.099 122.659L891.322 120.243H870V129.246V129.228ZM870 110.986V111.007H892.159L892.343 108.982L892.781 104.416L893 102H870V110.982V110.986Z" fill="white"/>
<path d="M462.44 327L422.826 316.014L414 217H511L502.164 316L462.44 327Z" fill="#264DE4"/>
<path d="M494.571 309.166L502 225H463V318L494.571 309.166Z" fill="#2965F1"/>
<path d="M434.249 261.663L435.357 273.846H463V261.663H434.249ZM432.024 237L433.147 249.183H462.995V237H432H432.024ZM462.995 293.309H462.942L449.183 289.643L448.304 279.923H435.882L437.611 299.055L462.913 306H462.971L462.995 293.309Z" fill="#EBEBEB"/>
<path d="M437 190H451.691V195.914H443.141V201.829H451.691V207.743H437V190ZM454.654 190H469.346V195.143H460.776V196.171H469.327V208H454.63V202.6H463.181V201.571H454.63V190H454.654ZM472.309 190H487V195.143H478.407V196.171H486.957V208H472.261V202.6H480.811V201.571H472.261V190H472.309Z" fill="black"/>
<path d="M490.767 261.665L493 237H462V249.184H479.429L478.305 261.646H462V273.829H477.23L475.771 289.646L462 293.323V306L487.353 299.074L487.537 297.013L490.456 264.929L490.758 261.655L490.767 261.665Z" fill="white"/>
<path d="M624 95H709V180H624V95Z" fill="#F7DF1E"/>
<path d="M646 165.842L652.501 161.982C653.757 164.164 654.896 166.01 657.634 166.01C660.258 166.01 661.911 165.003 661.911 161.088V134.456H669.894V161.196C669.894 169.307 665.052 173 657.976 173C651.591 173 647.885 169.754 646.003 165.839L646 165.842ZM674.229 165L680.727 161.307C682.438 164.05 684.662 166.058 688.597 166.058C691.906 166.058 694.014 164.436 694.014 162.197C694.014 159.511 691.848 158.561 688.203 156.993L686.208 156.154C680.45 153.75 676.628 150.729 676.628 144.35C676.628 138.475 681.189 134 688.316 134C693.391 134 697.032 135.736 699.663 140.265L693.449 144.182C692.08 141.775 690.599 140.825 688.316 140.825C685.979 140.825 684.494 142.279 684.494 144.182C684.494 146.532 685.976 147.482 689.398 148.933L691.393 149.772C698.172 152.623 702 155.533 702 162.08C702 169.13 696.354 172.991 688.765 172.991C681.341 172.991 676.563 169.507 674.239 164.99" fill="black"/>
<path d="M725 261.073C724.975 270.056 732.768 278.47 745.078 283.241C742.578 297.136 744.567 308.35 751.301 312.74C758.223 317.253 768.563 314.183 778.396 304.598C787.929 313.863 797.579 317.53 804.332 313.175C811.273 308.699 813.413 296.74 810.925 282.393C823.774 277.676 830.974 270.551 831 261.448C831.025 252.673 823.215 245.054 811.07 240.314C813.835 225.393 811.559 214.451 804.545 209.879C797.784 205.471 788.001 209.257 778.275 218.695C768.213 208.606 758.546 205.502 751.514 210.036C744.734 214.409 742.771 225.812 745.2 239.982C733.279 244.598 725.025 252.333 725 261.073Z" fill="white"/>
<path d="M808.333 244.529C807.334 244.14 806.326 243.779 805.31 243.447C805.481 242.678 805.639 241.906 805.784 241.13C808.11 228.645 806.641 218.576 801.536 215.245C796.641 212.05 788.612 215.334 780.49 223.225C779.69 224.004 778.907 224.806 778.143 225.63C777.634 225.078 777.116 224.538 776.59 224.008C768.125 215.509 759.626 211.911 754.508 215.216C749.6 218.384 748.122 227.841 750.151 239.688C750.353 240.861 750.581 242.028 750.836 243.188C749.631 243.568 748.467 243.974 747.354 244.405C737.391 248.268 731.018 254.356 731 260.693C730.982 267.238 737.786 273.828 748.141 277.845C748.98 278.169 749.827 278.47 750.68 278.747C750.399 279.995 750.149 281.251 749.931 282.515C747.932 294.142 749.442 303.385 754.319 306.569C759.356 309.856 767.836 306.526 776.106 298.455C776.76 297.817 777.416 297.142 778.073 296.43C778.896 297.328 779.741 298.199 780.607 299.044C788.574 306.796 796.456 309.943 801.347 306.786C806.398 303.524 808.064 293.606 805.97 281.525C805.811 280.602 805.626 279.661 805.415 278.7C806.01 278.505 806.593 278.303 807.164 278.093C817.952 274.12 824.981 267.66 825 261.027C825.018 254.667 818.475 248.492 808.333 244.529H808.333Z" fill="#53C1DE"/>
<path d="M805.923 274.309C805.409 274.498 804.881 274.681 804.343 274.858C803.04 270.277 801.462 265.801 799.619 261.461C801.416 257.192 802.957 252.793 804.232 248.292C805.193 248.609 806.126 248.942 807.025 249.293C815.717 252.688 821.011 257.682 821 261.514C820.988 265.597 815.241 270.878 805.924 274.309H805.923ZM802.037 282.89C802.963 288.232 803.084 293.06 802.45 296.831C801.88 300.22 800.748 302.476 799.353 303.377C796.384 305.293 790.053 302.766 783.238 296.136C782.456 295.376 781.67 294.566 780.88 293.707C783.74 290.173 786.384 286.427 788.794 282.493C793.08 282.102 797.337 281.381 801.536 280.334C801.725 281.204 801.892 282.056 802.037 282.89V282.89ZM762.924 302.915C760.026 304.053 757.72 304.077 756.329 303.17C753.368 301.238 752.156 293.816 753.865 283.873C754.069 282.698 754.301 281.53 754.562 280.369C758.737 281.391 762.969 282.095 767.228 282.474C769.686 286.411 772.372 290.162 775.268 293.704C774.683 294.336 774.084 294.951 773.472 295.55C769.813 299.12 766.15 301.648 762.925 302.915H762.924ZM749.441 274.083C744.861 272.306 741.081 270.005 738.492 267.5C736.166 265.248 734.995 263.017 735 261.209C735.011 257.364 740.13 252.476 748.653 249.173C749.723 248.76 750.803 248.382 751.893 248.04C753.144 252.6 754.663 257.061 756.439 261.395C754.616 265.779 753.053 270.292 751.76 274.907C750.981 274.654 750.208 274.379 749.441 274.083ZM754.086 239.337C752.347 229.186 753.542 221.538 756.501 219.629C759.653 217.595 766.601 220.536 773.912 227.874C774.379 228.343 774.849 228.834 775.319 229.342C772.423 232.84 769.736 236.55 767.277 240.447C763.056 240.857 758.862 241.574 754.723 242.593C754.486 241.514 754.274 240.428 754.086 239.337V239.337ZM794.616 250.73C793.702 248.944 792.754 247.18 791.771 245.438C794.771 245.874 797.644 246.45 800.341 247.152C799.466 250.235 798.453 253.267 797.306 256.236C796.442 254.381 795.545 252.546 794.616 250.73ZM778.126 232.576C780.075 234.978 781.915 237.488 783.638 240.099C779.936 239.889 776.232 239.875 772.525 240.056C774.359 237.357 776.238 234.85 778.126 232.576ZM761.428 250.643C760.5 252.437 759.61 254.255 758.758 256.096C757.597 252.975 756.605 249.908 755.796 246.946C758.481 246.281 761.343 245.74 764.325 245.333C763.323 247.077 762.357 248.847 761.428 250.643ZM764.32 277.616C761.411 277.251 758.52 276.718 755.659 276.02C756.497 273.012 757.529 269.886 758.733 266.707C759.578 268.555 760.462 270.38 761.383 272.182C762.324 274.019 763.303 275.831 764.32 277.616V277.616ZM778.074 290.467C776.177 288.153 774.285 285.594 772.438 282.842C774.238 282.928 776.072 282.974 777.939 282.981C779.856 282.988 781.748 282.948 783.616 282.86C781.886 285.5 780.036 288.039 778.074 290.467V290.467ZM797.315 266.682C798.501 269.72 799.546 272.825 800.446 275.984C797.548 276.705 794.619 277.255 791.67 277.632C792.669 275.866 793.636 274.078 794.572 272.268C795.523 270.429 796.437 268.567 797.315 266.682V266.682ZM791.098 270.002C789.666 272.776 788.154 275.496 786.564 278.161C783.773 278.375 780.89 278.48 777.952 278.47C775.026 278.459 772.18 278.347 769.439 278.138C767.823 275.469 766.299 272.734 764.866 269.934C763.441 267.15 762.112 264.309 760.879 261.41C762.124 258.52 763.466 255.687 764.902 252.909V252.91C766.337 250.134 767.865 247.422 769.485 244.774C772.282 244.546 775.149 244.432 778.048 244.442C780.959 244.453 783.83 244.588 786.625 244.837C788.213 247.491 789.715 250.204 791.133 252.979C792.558 255.758 793.901 258.588 795.163 261.467C793.899 264.365 792.544 267.21 791.099 270.002H791.098ZM799.527 219.647C802.67 221.698 803.871 229.928 801.863 240.707C801.731 241.41 801.588 242.109 801.434 242.806C797.294 241.736 793.096 240.976 788.867 240.53C786.455 236.611 783.809 232.879 780.95 229.359C781.656 228.599 782.379 227.859 783.118 227.139C790.08 220.378 796.576 217.722 799.527 219.647V219.647Z" fill="white"/>
<path d="M778.527 252C780.208 252.006 781.85 252.569 783.245 253.618C784.639 254.666 785.725 256.154 786.363 257.892C787.002 259.63 787.165 261.541 786.831 263.383C786.498 265.224 785.684 266.914 784.491 268.239C783.299 269.563 781.782 270.463 780.132 270.823C778.482 271.184 776.773 270.99 775.222 270.265C773.671 269.541 772.347 268.318 771.418 266.753C770.488 265.187 769.995 263.349 770 261.47C770.004 260.222 770.227 258.988 770.657 257.837C771.088 256.686 771.717 255.641 772.509 254.761C773.3 253.882 774.239 253.185 775.272 252.712C776.304 252.238 777.41 251.996 778.527 252" fill="#53C1DE"/>
<path d="M78.5708 281.302L84.5401 255.807L58.9686 250.172L60.7893 242.401L94.1561 249.752L86.366 283.019L78.5708 281.302Z" fill="#1799DD"/>
<path d="M896.345 259.867L911.594 255.256L906.784 240.07L911.432 238.665L917.709 258.481L897.812 264.496L896.345 259.867Z" fill="#1799DD"/>
<path d="M458.515 105.86L464.484 80.3643L438.913 74.7295L440.734 66.9579L474.1 74.3092L466.31 107.576L458.515 105.86Z" fill="#1799DD"/>
<path d="M65.0314 289.828L39.444 284.203L45.4132 258.708L37.6179 256.991L29.844 290.248L63.2106 297.599L65.0314 289.828Z" fill="#1799DD"/>
<path d="M887.735 255.326L882.915 240.135L898.163 235.524L896.697 230.895L876.81 236.915L883.087 256.731L887.735 255.326Z" fill="#1799DD"/>
<path d="M444.976 114.385L419.388 108.761L425.358 83.2652L417.562 81.5486L409.788 114.805L443.155 122.157L444.976 114.385Z" fill="#1799DD"/>
</g>
<defs>
<clipPath id="clip0">
<rect width="1019.48" height="436.681" fill="white"/>
</clipPath>
</defs>
</svg>
